<?xml version="1.0" encoding="UTF-8"?>
<svg width="640px" height="136px" viewBox="0 0 640 136" version="1.1" xmlns="http://www.w3.org/2000/svg" xmlns:xlink="http://www.w3.org/1999/xlink">
    <!-- Generator: Sketch 52.2 (67145) - http://www.bohemiancoding.com/sketch -->
    <title>airbnb_cereal_logotype copy</title>
    <desc>Created with Sketch.</desc>
    <g id="airbnb_cereal_logotype-copy" stroke="none" stroke-width="1" fill="none" fill-rule="evenodd">
        <g id="Group" transform="translate(20.000000, 20.000000)" fill="#272727">
            <path d="M24.076,80.59 C20.1186469,80.59 16.5323494,79.9540064 13.317,78.682 C10.1016506,77.4099936 7.38101113,75.6080117 5.155,73.276 C2.92898887,70.9439883 1.39200424,68.1880159 0.544,65.008 L13.9,62.146 C14.6066702,64.3366776 15.8786575,66.0679936 17.716,67.34 C19.5533425,68.6120064 21.7439873,69.248 24.288,69.248 C26.6906787,69.248 28.6693256,68.7180053 30.224,67.658 C31.7786744,66.5979947 32.556,65.1493425 32.556,63.312 C32.556,61.7573256 31.8670069,60.4676718 30.489,59.443 C29.1109931,58.4183282 26.8320159,57.6233362 23.652,57.058 L20.684,56.528 C14.6066363,55.4679947 9.99568239,53.4893478 6.851,50.592 C3.70631761,47.6946522 2.134,44.0200223 2.134,39.568 C2.134,36.034649 3.05265748,32.9076803 4.89,30.187 C6.72734252,27.4663197 9.27131708,25.3286744 12.522,23.774 C15.7726829,22.2193256 19.5179788,21.442 23.758,21.442 C27.5033521,21.442 30.9129846,22.0603272 33.987,23.297 C37.0610154,24.5336729 39.6226564,26.2826554 41.672,28.544 C43.7213436,30.8053446 45.1346628,33.5259841 45.912,36.706 L32.662,39.462 C31.9553298,37.3419894 30.807008,35.6813393 29.217,34.48 C27.6269921,33.2786607 25.7720106,32.678 23.652,32.678 C21.4613224,32.678 19.6593404,33.2079947 18.246,34.268 C16.8326596,35.3280053 16.126,36.6706585 16.126,38.296 C16.126,39.7093404 16.8149931,40.8929952 18.193,41.847 C19.5710069,42.8010048 21.9206501,43.5606638 25.242,44.126 L28.21,44.656 C34.2166967,45.7160053 38.8099841,47.7123187 41.99,50.645 C45.1700159,53.5776813 46.76,57.3053107 46.76,61.828 C46.76,64.5840138 46.2123388,67.0926554 45.117,69.354 C44.0216612,71.6153446 42.4493436,73.5939915 40.4,75.29 C38.3506564,76.9860085 35.9480138,78.2933287 33.192,79.212 C30.4359862,80.1306713 27.3973499,80.59 24.076,80.59 Z M73.396,80.59 C70.4986522,80.59 67.8486787,80.1660042 65.446,79.318 C63.0433213,78.4699958 60.941009,77.251008 59.139,75.661 C57.336991,74.0709921 55.9413383,72.2160106 54.952,70.096 C53.9626617,67.9759894 53.468,65.6440127 53.468,63.1 C53.468,59.566649 54.4219905,56.4573468 56.33,53.772 C58.2380095,51.0866532 60.923316,48.9843409 64.386,47.465 C67.848684,45.9456591 71.8766437,45.186 76.47,45.186 C78.8020117,45.186 81.0103229,45.3979979 83.095,45.822 C85.1796771,46.2460021 87.2113234,46.8466628 89.19,47.624 L89.19,44.338 C89.19,41.1579841 88.289009,38.5786766 86.487,36.6 C84.684991,34.6213234 82.2293489,33.632 79.12,33.632 C76.7879883,33.632 74.6680095,34.2149942 72.76,35.381 C70.8519905,36.5470058 69.5093372,38.1899894 68.732,40.31 L55.482,37.66 C56.2593372,34.4093171 57.7963219,31.5650122 60.093,29.127 C62.3896782,26.6889878 65.1986501,24.7986734 68.52,23.456 C71.8413499,22.1133266 75.4453139,21.442 79.332,21.442 C82.936018,21.442 86.2219852,22.0073277 89.19,23.138 C92.1580148,24.2686723 94.7196559,25.8939894 96.875,28.014 C99.0303441,30.1340106 100.690994,32.6249857 101.857,35.487 C103.023006,38.3490143 103.606,41.546649 103.606,45.08 L103.606,79 L90.356,79 L89.932,72.428 C88.4479926,74.8306787 86.2926808,76.7916591 83.466,78.311 C80.6393192,79.8303409 77.2826861,80.59 73.396,80.59 Z M68.096,62.358 C68.096,64.3366766 68.9086585,65.9619936 70.534,67.234 C72.1593415,68.5060064 74.3146532,69.142 77,69.142 C79.3320117,69.142 81.4166575,68.6473383 83.254,67.658 C85.0913425,66.6686617 86.5399947,65.308342 87.6,63.577 C88.6600053,61.845658 89.19,59.9200106 89.19,57.8 L89.19,57.27 C87.6353256,56.6339968 85.9746755,56.1216686 84.208,55.733 C82.4413245,55.3443314 80.6746755,55.15 78.908,55.15 C75.5866501,55.15 72.9543431,55.8036601 71.011,57.111 C69.067657,58.4183399 68.096,60.1673224 68.096,62.358 Z M112.978,79 L112.978,23.032 L126.652,23.032 L127.076,30.24 C128.701341,27.5546532 130.944986,25.4170079 133.807,23.827 C136.669014,22.236992 139.937315,21.442 143.612,21.442 C147.710687,21.442 151.296985,22.413657 154.371,24.357 C157.445015,26.300343 159.829992,29.073982 161.526,32.678 C163.222008,36.282018 164.07,40.5219756 164.07,45.398 L164.07,79 L149.23,79 L149.23,47.306 C149.23,43.4193139 148.346676,40.3630111 146.58,38.137 C144.813325,35.9109889 142.375349,34.798 139.266,34.798 C137.004655,34.798 135.026008,35.3103282 133.33,36.335 C131.633992,37.3596718 130.291338,38.7906575 129.302,40.628 C128.312662,42.4653425 127.818,44.5499883 127.818,46.882 L127.818,79 L112.978,79 Z M192.126,80.59 C188.239314,80.59 184.900347,79.8303409 182.109,78.311 C179.317653,76.7916591 177.162341,74.5833478 175.643,71.686 C174.123659,68.7886522 173.364,65.2553542 173.364,61.086 L173.364,35.01 L173.364,23.032 L173.364,3.952 L188.204,3.952 L188.204,23.032 L203.468,23.032 L203.468,35.01 L188.204,35.01 L188.204,59.284 C188.204,61.9693468 188.769328,64.0363261 189.9,65.485 C191.030672,66.9336739 192.761988,67.658 195.094,67.658 C196.295339,67.658 197.584993,67.4813351 198.963,67.128 C200.341007,66.7746649 201.665994,66.3153362 202.938,65.75 L205.588,76.88 C203.750657,78.0106723 201.701345,78.9116633 199.44,79.583 C197.178655,80.2543367 194.74068,80.59 192.126,80.59 Z M213.78,79 L213.78,23.032 L228.62,23.032 L228.62,79 L213.78,79 Z M241.9,79 L241.9,0.56 L248.26,0.56 L248.26,35.01 C250.238677,31.335315 252.994649,28.4380106 256.528,26.318 C260.061351,24.1979894 264.053978,23.138 268.506,23.138 C272.180685,23.138 275.590318,23.8623261 278.735,25.311 C281.879682,26.7596739 284.617988,28.7913203 286.95,31.406 C289.282012,34.0206797 291.10166,37.059316 292.409,40.522 C293.71634,43.984684 294.37,47.7653128 294.37,51.864 C294.37,55.9626872 293.71634,59.743316 292.409,63.206 C291.10166,66.668684 289.264345,69.7073203 286.897,72.322 C284.529655,74.9366797 281.756016,76.9683261 278.576,78.417 C275.395984,79.8656739 271.968685,80.59 268.294,80.59 C265.396652,80.59 262.64068,80.1130048 260.026,79.159 C257.41132,78.2049952 255.079344,76.8093425 253.03,74.972 C250.980656,73.1346575 249.320006,70.9793457 248.048,68.506 L247.624,79 L241.9,79 Z M267.976,74.76 C270.873348,74.76 273.540988,74.1946723 275.979,73.064 C278.417012,71.9333277 280.519325,70.3433436 282.286,68.294 C284.052676,66.2446564 285.430662,63.8243473 286.42,61.033 C287.409338,58.2416527 287.904,55.1853499 287.904,51.864 C287.904,48.5426501 287.409338,45.4863473 286.42,42.695 C285.430662,39.9036527 284.052676,37.4833436 282.286,35.434 C280.519325,33.3846564 278.417012,31.7946723 275.979,30.664 C273.540988,29.5333277 270.873348,28.968 267.976,28.968 C265.078652,28.968 262.411012,29.5333277 259.973,30.664 C257.534988,31.7946723 255.432676,33.3846564 253.666,35.434 C251.899325,37.4833436 250.521338,39.9036527 249.532,42.695 C248.542662,45.4863473 248.048,48.5426501 248.048,51.864 C248.048,55.1853499 248.542662,58.2416527 249.532,61.033 C250.521338,63.8243473 251.899325,66.2446564 253.666,68.294 C255.432676,70.3433436 257.534988,71.9333277 259.973,73.064 C262.411012,74.1946723 265.078652,74.76 267.976,74.76 Z M331.5,80.59 C327.542647,80.59 323.90335,79.8833404 320.582,78.47 C317.26065,77.0566596 314.381012,75.0780127 311.943,72.534 C309.504988,69.9899873 307.63234,66.986684 306.325,63.524 C305.01766,60.061316 304.364,56.2453542 304.364,52.076 C304.364,47.9773128 304.999994,44.1790175 306.272,40.681 C307.544006,37.1829825 309.328322,34.1266797 311.625,31.512 C313.921678,28.8973203 316.624651,26.8656739 319.734,25.417 C322.843349,23.9683261 326.235315,23.244 329.91,23.244 C333.443351,23.244 336.676319,23.8976601 339.609,25.205 C342.541681,26.5123399 345.120989,28.3496548 347.347,30.717 C349.573011,33.0843452 351.286661,35.8756506 352.488,39.091 C353.689339,42.3063494 354.29,45.7866479 354.29,49.532 L354.29,52.5 L310.724,52.5 C310.794667,56.9520223 311.695658,60.873983 313.427,64.266 C315.158342,67.658017 317.560985,70.290324 320.635,72.163 C323.709015,74.035676 327.25998,74.972 331.288,74.972 C338.708037,74.972 344.361314,71.8626978 348.248,65.644 L353.336,68.612 C351.92266,71.1560127 350.103011,73.3113245 347.877,75.078 C345.650989,76.8446755 343.160014,78.2049952 340.404,79.159 C337.647986,80.1130048 334.680016,80.59 331.5,80.59 Z M329.91,28.65 C326.659317,28.65 323.72668,29.4449921 321.112,31.035 C318.49732,32.625008 316.306676,34.8333192 314.54,37.66 C312.773325,40.4866808 311.607336,43.737315 311.042,47.412 L347.93,47.412 C347.647332,43.807982 346.693341,40.5926808 345.068,37.766 C343.442659,34.9393192 341.32268,32.7133415 338.708,31.088 C336.09332,29.4626585 333.160683,28.65 329.91,28.65 Z M390.042,80.59 C386.367315,80.59 382.957682,79.8833404 379.813,78.47 C376.668318,77.0566596 373.930012,75.0780127 371.598,72.534 C369.265988,69.9899873 367.464006,66.986684 366.192,63.524 C364.919994,60.061316 364.284,56.2806872 364.284,52.182 C364.284,48.0833128 364.93766,44.2850175 366.245,40.787 C367.55234,37.2889825 369.371988,34.2150132 371.704,31.565 C374.036012,28.9149867 376.774318,26.8480074 379.919,25.364 C383.063682,23.8799926 386.437982,23.138 390.042,23.138 C393.151349,23.138 396.083986,23.6679947 398.84,24.728 C401.596014,25.7880053 404.033989,27.3249899 406.154,29.339 C408.274011,31.3530101 409.969994,33.7026532 411.242,36.388 L405.73,39.038 C404.033992,35.8579841 401.790347,33.3846755 398.999,31.618 C396.207653,29.8513245 393.222016,28.968 390.042,28.968 C387.285986,28.968 384.742012,29.5509942 382.41,30.717 C380.077988,31.8830058 378.028676,33.5259894 376.262,35.646 C374.495325,37.7660106 373.135005,40.2216527 372.181,43.013 C371.226995,45.8043473 370.75,48.8606501 370.75,52.182 C370.75,55.5033499 371.226995,58.5419862 372.181,61.298 C373.135005,64.0540138 374.477658,66.4389899 376.209,68.453 C377.940342,70.4670101 379.971988,72.0216612 382.304,73.117 C384.636012,74.2123388 387.215319,74.76 390.042,74.76 C392.303345,74.76 394.493989,74.3536707 396.614,73.541 C398.734011,72.7283293 400.641992,71.5800074 402.338,70.096 C404.034008,68.6119926 405.411995,66.8453436 406.472,64.796 L411.878,67.34 C410.676661,70.0253468 408.963011,72.3573234 406.737,74.336 C404.510989,76.3146766 401.949348,77.8516612 399.052,78.947 C396.154652,80.0423388 393.151349,80.59 390.042,80.59 Z M447.948,80.59 C443.990647,80.59 440.35135,79.8833404 437.03,78.47 C433.70865,77.0566596 430.829012,75.0780127 428.391,72.534 C425.952988,69.9899873 424.08034,66.986684 422.773,63.524 C421.46566,60.061316 420.812,56.2453542 420.812,52.076 C420.812,47.9773128 421.447994,44.1790175 422.72,40.681 C423.992006,37.1829825 425.776322,34.1266797 428.073,31.512 C430.369678,28.8973203 433.072651,26.8656739 436.182,25.417 C439.291349,23.9683261 442.683315,23.244 446.358,23.244 C449.891351,23.244 453.124319,23.8976601 456.057,25.205 C458.989681,26.5123399 461.568989,28.3496548 463.795,30.717 C466.021011,33.0843452 467.734661,35.8756506 468.936,39.091 C470.137339,42.3063494 470.738,45.7866479 470.738,49.532 L470.738,52.5 L427.172,52.5 C427.242667,56.9520223 428.143658,60.873983 429.875,64.266 C431.606342,67.658017 434.008985,70.290324 437.083,72.163 C440.157015,74.035676 443.70798,74.972 447.736,74.972 C455.156037,74.972 460.809314,71.8626978 464.696,65.644 L469.784,68.612 C468.37066,71.1560127 466.551011,73.3113245 464.325,75.078 C462.098989,76.8446755 459.608014,78.2049952 456.852,79.159 C454.095986,80.1130048 451.128016,80.59 447.948,80.59 Z M446.358,28.65 C443.107317,28.65 440.17468,29.4449921 437.56,31.035 C434.94532,32.625008 432.754676,34.8333192 430.988,37.66 C429.221325,40.4866808 428.055336,43.737315 427.49,47.412 L464.378,47.412 C464.095332,43.807982 463.141341,40.5926808 461.516,37.766 C459.890659,34.9393192 457.77068,32.7133415 455.156,31.088 C452.54132,29.4626585 449.608683,28.65 446.358,28.65 Z M483.064,79 L483.064,24.728 L488.788,24.728 L489.212,35.01 C490.554673,31.617983 492.621653,28.9326766 495.413,26.954 C498.204347,24.9753234 501.437315,23.986 505.112,23.986 C506.242672,23.986 507.320328,24.0743325 508.345,24.251 C509.369672,24.4276676 510.23533,24.6573319 510.942,24.94 L510.094,30.876 C509.316663,30.5933319 508.486338,30.3990005 507.603,30.293 C506.719662,30.1869995 505.854004,30.134 505.006,30.134 C501.896651,30.134 499.176012,30.9289921 496.844,32.519 C494.511988,34.109008 492.69234,36.3526522 491.385,39.25 C490.07766,42.1473478 489.424,45.5393139 489.424,49.426 L489.424,79 L483.064,79 Z M521.466,79 L521.466,24.728 L527.19,24.728 L527.614,35.01 C528.956673,31.617983 531.023653,28.9326766 533.815,26.954 C536.606347,24.9753234 539.839315,23.986 543.514,23.986 C544.644672,23.986 545.722328,24.0743325 546.747,24.251 C547.771672,24.4276676 548.63733,24.6573319 549.344,24.94 L548.496,30.876 C547.718663,30.5933319 546.888338,30.3990005 546.005,30.293 C545.121662,30.1869995 544.256004,30.134 543.408,30.134 C540.298651,30.134 537.578012,30.9289921 535.246,32.519 C532.913988,34.109008 531.09434,36.3526522 529.787,39.25 C528.47966,42.1473478 527.826,45.5393139 527.826,49.426 L527.826,79 L521.466,79 Z M575.344,80.59 C571.457314,80.59 568.047681,79.8833404 565.115,78.47 C562.182319,77.0566596 559.885675,75.0956792 558.225,72.587 C556.564325,70.0783208 555.734,67.1633499 555.734,63.842 C555.734,60.379316 556.652657,57.3760127 558.49,54.832 C560.327343,52.2879873 562.90665,50.3093404 566.228,48.896 C569.54935,47.4826596 573.506644,46.776 578.1,46.776 C579.796008,46.776 581.562657,46.9173319 583.4,47.2 C585.237343,47.4826681 587.021658,47.8713309 588.753,48.366 C590.484342,48.8606691 592.05666,49.4259968 593.47,50.062 L593.47,45.292 C593.47,42.0413171 592.834006,39.1793457 591.562,36.706 C590.289994,34.2326543 588.523345,32.3070069 586.262,30.929 C584.000655,29.5509931 581.386015,28.862 578.418,28.862 C574.813982,28.862 571.669347,29.727658 568.984,31.459 C566.298653,33.190342 564.284673,35.6106511 562.942,38.72 L557.748,36.282 C558.737338,33.6673203 560.23899,31.3706766 562.253,29.392 C564.26701,27.4133234 566.687319,25.8940053 569.514,24.834 C572.340681,23.7739947 575.379317,23.244 578.63,23.244 C582.870021,23.244 586.562318,24.1626575 589.707,26 C592.851682,27.8373425 595.289658,30.4166501 597.021,33.738 C598.752342,37.0593499 599.618,40.9459777 599.618,45.398 L599.618,79 L594.106,79 L593.576,70.308 C592.021326,73.4173489 589.636349,75.908324 586.421,77.781 C583.205651,79.653676 579.513354,80.59 575.344,80.59 Z M562.094,63.736 C562.094,66.1386787 562.676994,68.205658 563.843,69.937 C565.009006,71.668342 566.634323,73.0109952 568.719,73.965 C570.803677,74.9190048 573.223986,75.396 575.98,75.396 C578.524013,75.396 580.855989,74.9543378 582.976,74.071 C585.096011,73.1876623 586.933326,71.9686744 588.488,70.414 C590.042674,68.8593256 591.261662,67.0396771 592.145,64.955 C593.028338,62.8703229 593.47,60.5913457 593.47,58.118 L593.47,55.15 C590.925987,54.0899947 588.34668,53.2773362 585.732,52.712 C583.11732,52.1466638 580.644012,51.864 578.312,51.864 C573.223975,51.864 569.249014,52.9239894 566.387,55.044 C563.524986,57.1640106 562.094,60.061315 562.094,63.736 Z" id="santibecerra"></path>
        </g>
    </g>
</svg>