<?xml version="1.0" encoding="UTF-8"?>
<svg width="784px" height="900px" viewBox="0 0 784 900" version="1.1" xmlns="http://www.w3.org/2000/svg" xmlns:xlink="http://www.w3.org/1999/xlink" style="background: #FFFFFF;">
    <!-- Generator: Sketch 49.2 (51160) - http://www.bohemiancoding.com/sketch -->
    <title>section4</title>
    <desc>Created with Sketch.</desc>
    <defs></defs>
    <g id="section4" stroke="none" stroke-width="1" fill="none" fill-rule="evenodd">
        <g id="Group-3" transform="translate(2.000000, -16.000000)">
            <g id="letter-a" transform="translate(102.343335, 0.000000)">
                <text id="s" stroke="#3E3E3E" stroke-width="1.15381483" font-family="AirbnbCerealApp-Bold, Airbnb Cereal App" font-size="396.273646" font-weight="bold" fill="#FFFFFF">
                    <tspan x="9.09441597" y="400">s</tspan>
                </text>
                <path d="M223.174385,234.812865 L117.946479,256.966108" id="Line-Copy" stroke="#69D0C1" stroke-width="1.31216439" stroke-linecap="square" stroke-dasharray="5.248657464981079"></path>
                <path d="M106.869857,328.96415 L1.64195039,351.117393" id="Line-Copy" stroke="#69D0C1" stroke-width="1.31216439" stroke-linecap="square" stroke-dasharray="5.248657464981079"></path>
                <path d="M111.443239,364.781701 C136.807332,364.781701 157.368992,344.220041 157.368992,318.855947 C157.368992,293.491854 136.807332,272.930194 111.443239,272.930194 C86.0791451,272.930194 65.5174848,293.491854 65.5174848,318.855947 C65.5174848,344.220041 86.0791451,364.781701 111.443239,364.781701 Z" id="Oval-2" stroke="#69D0C1" stroke-width="1.31216439" stroke-dasharray="5.248657464981079"></path>
                <path d="M96.6744095,318.62911 C122.038503,318.62911 142.600163,298.06745 142.600163,272.703357 C142.600163,247.339263 122.038503,226.777603 96.6744095,226.777603 C71.3103161,226.777603 50.7486558,247.339263 50.7486558,272.703357 C50.7486558,298.06745 71.3103161,318.62911 96.6744095,318.62911 Z" id="Oval-2" stroke="#69D0C1" stroke-width="1.31216439" stroke-dasharray="5.248657464981079"></path>
                <path d="M101.923067,270.194191 C115.275836,270.194191 126.100394,259.369633 126.100394,246.016864 C126.100394,232.664095 115.275836,221.839537 101.923067,221.839537 C88.5702982,221.839537 77.7457402,232.664095 77.7457402,246.016864 C77.7457402,259.369633 88.5702982,270.194191 101.923067,270.194191 Z" id="Oval-2" stroke="#69D0C1" stroke-width="1.31216439" stroke-dasharray="5.248657464981079"></path>
                <path d="M112.999689,364.345476 C126.352458,364.345476 137.177016,353.520918 137.177016,340.168149 C137.177016,326.81538 126.352458,315.990822 112.999689,315.990822 C99.6469199,315.990822 88.822362,326.81538 88.822362,340.168149 C88.822362,353.520918 99.6469199,364.345476 112.999689,364.345476 Z" id="Oval-2" stroke="#69D0C1" stroke-width="1.31216439" stroke-dasharray="5.248657464981079"></path>
                <path d="M107.07401,408.575188 C159.072329,408.575188 201.225295,366.422221 201.225295,314.423903 C201.225295,262.425584 159.072329,220.272618 107.07401,220.272618 C55.0756915,220.272618 12.9227254,262.425584 12.9227254,314.423903 C12.9227254,366.422221 55.0756915,408.575188 107.07401,408.575188 Z" id="Oval-2" stroke="#69D0C1" stroke-width="1.31216439" stroke-dasharray="5.248657464981079"></path>
                <path d="M103.381803,373.499219 C155.380122,373.499219 197.533088,331.346253 197.533088,279.347934 C197.533088,227.349615 155.380122,185.196649 103.381803,185.196649 C51.3834842,185.196649 9.23051813,227.349615 9.23051813,279.347934 C9.23051813,331.346253 51.3834842,373.499219 103.381803,373.499219 Z" id="Oval-2" stroke="#69D0C1" stroke-width="1.31216439" stroke-dasharray="5.248657464981079"></path>
            </g>
            <g id="letter-a-copy" transform="translate(390.000000, 214.500000)">
                <text id="b" stroke="#3E3E3E" stroke-width="1.15381483" font-family="AirbnbCerealApp-Bold, Airbnb Cereal App" font-size="396.273646" font-weight="bold" fill="#FFFFFF">
                    <tspan x="1.71000147" y="400">b</tspan>
                </text>
                <path d="M108.349471,105.585611 L1.64195039,105.585611" id="Line-Copy" stroke="#69D0C1" stroke-width="1.31216439" stroke-linecap="square" stroke-dasharray="5.248657464981079"></path>
                <path d="M89.5360259,401.527539 L8.30746632,401.527539" id="Line-Copy" stroke="#69D0C1" stroke-width="1.31216439" stroke-linecap="square" stroke-dasharray="5.248657464981079"></path>
                <path d="M76.6133005,364.605466 L72.9210932,429.219093" id="Line-Copy" stroke="#69D0C1" stroke-width="1.31216439" stroke-linecap="square" stroke-dasharray="5.248657464981079"></path>
                <g id="Group-2" transform="translate(131.073357, 295.376580) rotate(36.000000) translate(-131.073357, -295.376580) translate(103.381803, 262.146715)" stroke="#69D0C1" stroke-dasharray="5.248657464981079" stroke-linecap="square" stroke-width="1.31216439">
                    <path d="M28.6146062,0.923051813 L24.9223989,65.5366787" id="Line-Copy"></path>
                    <path d="M54.460057,39.691228 L0.923051813,26.7685026" id="Line-Copy"></path>
                </g>
                <path d="M23.0762953,91.256053 L23.0762953,429.219093" id="Line-Copy" stroke="#69D0C1" stroke-width="1.31216439" stroke-linecap="square" stroke-dasharray="5.248657464981079"></path>
                <path d="M80.3055077,91.256053 L80.3055077,248.398564" id="Line-Copy" stroke="#69D0C1" stroke-width="1.31216439" stroke-linecap="square" stroke-dasharray="5.248657464981079"></path>
                <path d="M144.919135,406.729084 C197.427241,406.729084 239.993471,356.59285 239.993471,294.746671 C239.993471,232.900493 197.427241,182.764259 144.919135,182.764259 C92.4110284,182.764259 49.8447979,232.900493 49.8447979,294.746671 C49.8447979,356.59285 92.4110284,406.729084 144.919135,406.729084 Z" id="Oval-2" stroke="#69D0C1" stroke-width="1.31216439" stroke-dasharray="5.248657464981079"></path>
                <path d="M130.150306,356.884286 C158.16091,356.884286 180.867991,329.477593 180.867991,295.669723 C180.867991,261.861854 158.16091,234.45516 130.150306,234.45516 C102.139701,234.45516 79.4326199,261.861854 79.4326199,295.669723 C79.4326199,329.477593 102.139701,356.884286 130.150306,356.884286 Z" id="Oval-2" stroke="#69D0C1" stroke-width="1.31216439" stroke-dasharray="5.248657464981079"></path>
                <path d="M130.150306,299.655074 C131.973925,299.655074 133.452261,297.870771 133.452261,295.669723 C133.452261,293.468675 131.973925,291.684373 130.150306,291.684373 C128.326686,291.684373 126.84835,293.468675 126.84835,295.669723 C126.84835,297.870771 128.326686,299.655074 130.150306,299.655074 Z" id="Oval-2" stroke="#69D0C1" stroke-width="1.31216439" stroke-dasharray="5.248657464981079"></path>
            </g>
            <g id="letter-a-copy" transform="translate(177.000000, 430.500000)">
                <text id="c" stroke="#3E3E3E" stroke-width="1.15381483" font-family="AirbnbCerealApp-Bold, Airbnb Cereal App" font-size="396.273646" font-weight="bold" fill="#FFFFFF">
                    <tspan x="0.368108146" y="400">c</tspan>
                </text>
                <path d="M238.608894,250.147041 L132.253782,269.888834" id="Line-Copy" stroke="#69D0C1" stroke-width="1.31216439" stroke-linecap="square" stroke-dasharray="5.248657464981079"></path>
                <path d="M245.993308,344.298326 L137.792093,323.425839" id="Line-Copy" stroke="#69D0C1" stroke-width="1.31216439" stroke-linecap="square" stroke-dasharray="5.248657464981079"></path>
                <g id="Group" transform="translate(89.997552, 262.146715)" stroke="#69D0C1" stroke-dasharray="5.248657464981079" stroke-linecap="square" stroke-width="1.31216439">
                    <path d="M28.6146062,0.923051813 L24.9223989,65.5366787" id="Line-Copy"></path>
                    <path d="M54.460057,39.691228 L0.923051813,26.7685026" id="Line-Copy"></path>
                </g>
                <path d="M116.766054,299.655074 C118.589674,299.655074 120.068009,297.870771 120.068009,295.669723 C120.068009,293.468675 118.589674,291.684373 116.766054,291.684373 C114.942435,291.684373 113.464099,293.468675 113.464099,295.669723 C113.464099,297.870771 114.942435,299.655074 116.766054,299.655074 Z" id="Oval-2" stroke="#69D0C1" stroke-width="1.31216439" stroke-dasharray="5.248657464981079"></path>
                <path d="M116.766054,407.988901 C174.372035,407.988901 221.070909,357.983912 221.070909,296.299632 C221.070909,234.615352 174.372035,184.610363 116.766054,184.610363 C59.1600735,184.610363 12.4611993,234.615352 12.4611993,296.299632 C12.4611993,357.983912 59.1600735,407.988901 116.766054,407.988901 Z" id="Oval-2" stroke="#69D0C1" stroke-width="1.31216439" stroke-dasharray="5.248657464981079"></path>
                <path d="M119.560292,356.884286 C146.055386,356.884286 167.533904,329.477593 167.533904,295.669723 C167.533904,261.861854 146.055386,234.45516 119.560292,234.45516 C93.0651972,234.45516 71.5866794,261.861854 71.5866794,295.669723 C71.5866794,329.477593 93.0651972,356.884286 119.560292,356.884286 Z" id="Oval-2" stroke="#69D0C1" stroke-width="1.31216439" stroke-dasharray="5.248657464981079"></path>
            </g>
            <path d="M0.960141434,400.258875 L771.754026,400.258875" id="Line-Copy-2" stroke="#69D0C1" stroke-width="1.15381483" stroke-linecap="square"></path>
            <path d="M0.960141434,104.882277 L667.39028,104.882277" id="Line-Copy-2" stroke="#69D0C1" stroke-width="1.15381483" stroke-linecap="square"></path>
            <path d="M341.075971,320.146765 L747.798363,320.146765" id="Line-Copy-2" stroke="#69D0C1" stroke-width="1.15381483" stroke-linecap="square"></path>
            <path d="M96.4587673,188.081523 L570.838609,188.081523" id="Line-Copy-2" stroke="#69D0C1" stroke-width="1.15381483" stroke-linecap="square"></path>
            <path d="M91.9587673,836.081523 L564.752944,836.081523" id="Line-Copy-4" stroke="#69D0C1" stroke-width="1.15381483" stroke-linecap="square"></path>
            <path d="M130.958767,617.081523 L681.78087,617.081523" id="Line-Copy-3" stroke="#69D0C1" stroke-width="1.15381483" stroke-linecap="square"></path>
        </g>
    </g>
</svg>