<?xml version="1.0" encoding="UTF-8"?>
<svg width="784px" height="900px" viewBox="0 0 784 900" version="1.1" xmlns="http://www.w3.org/2000/svg" xmlns:xlink="http://www.w3.org/1999/xlink" style="background: #FFFFFF;">
    <!-- Generator: Sketch 49.2 (51160) - http://www.bohemiancoding.com/sketch -->
    <title>section3</title>
    <desc>Created with Sketch.</desc>
    <defs></defs>
    <g id="section3" stroke="none" stroke-width="1" fill="none" fill-rule="evenodd">
        <g id="designthinking_portfolio" transform="translate(37.000000, 18.000000)">
            <g id="IDEA" transform="translate(-0.000000, 246.824468)">
                <rect id="Rectangle" stroke="#4D4D4D" stroke-width="3.4037232" transform="translate(328.589425, 179.775515) rotate(45.000000) translate(-328.589425, -179.775515) " x="204.269977" y="54.1831191" width="248.638896" height="251.184791" rx="13.6148928"></rect>
                <g id="05_idear" transform="translate(264.599435, 116.239348)" fill="#000000" fill-rule="nonzero">
                    <path d="M63.3867706,32.7237015 C49.8595773,32.7237015 38.8553709,43.7279079 38.8553709,57.2551012 C38.8553709,66.0741787 43.522274,74.096049 51.1208561,78.4809031 L51.1208561,80.7909579 C49.8861938,81.7251113 49.076537,83.1907361 49.076537,84.8551261 C49.076537,86.0099388 49.4753552,87.0651543 50.1231665,87.9216047 C49.4749259,88.7759085 49.076537,89.8311241 49.076537,90.9859368 C49.076537,93.8051395 51.368132,96.0967345 54.1873347,96.0967345 L72.5857772,96.0967345 C75.4049799,96.0967345 77.6965749,93.8051395 77.6965749,90.9859368 C77.6965749,89.8311241 77.2977566,88.7759085 76.6499453,87.9194582 C77.2981859,87.0630078 77.6965749,86.0082216 77.6965749,84.8529796 C77.6965749,83.1890189 76.886918,81.7233941 75.6522558,80.7888114 L75.6522558,78.4787566 C83.2508378,74.0939025 87.917741,66.0741787 87.917741,57.2529547 C87.9181703,43.7279079 76.9139638,32.7237015 63.3867706,32.7237015 Z M72.5862065,92.0076671 L54.187764,92.0076671 C53.6253831,92.0076671 53.1656045,91.5478884 53.1656045,90.9855075 C53.1656045,90.4231266 53.6253831,89.963348 54.187764,89.963348 L72.5862065,89.963348 C73.1485874,89.963348 73.608366,90.4231266 73.608366,90.9855075 C73.6087953,91.5478884 73.1485874,92.0076671 72.5862065,92.0076671 Z M72.5862065,85.8751391 L54.187764,85.8751391 C53.6253831,85.8751391 53.1656045,85.4153605 53.1656045,84.8529796 C53.1656045,84.2905986 53.6253831,83.83082 54.187764,83.83082 L72.5862065,83.83082 C73.1485874,83.83082 73.608366,84.2905986 73.608366,84.8529796 C73.608366,85.4153605 73.1485874,85.8751391 72.5862065,85.8751391 Z M72.6759298,75.4449046 L71.5640469,76.0171594 L71.5640469,79.7417526 L65.4310897,79.7417526 L65.4310897,65.1413132 C68.9491902,64.2273369 71.5640469,61.0526751 71.5640469,57.2546719 C71.5640469,52.744892 67.8965505,49.0773956 63.3867706,49.0773956 C58.8769907,49.0773956 55.2094942,52.744892 55.2094942,57.2546719 C55.2094942,61.0531044 57.8239216,64.2277662 61.3424515,65.1413132 L61.3424515,79.7417526 L55.2094942,79.7417526 L55.2094942,76.0171594 L54.0976113,75.4466218 C47.2185334,71.9263748 42.944009,64.955427 42.944009,57.2546719 C42.944009,45.9825833 52.1146819,36.8119104 63.3867706,36.8119104 C74.6588592,36.8119104 83.8295321,45.9825833 83.8295321,57.2546719 C83.8295321,64.9558563 79.555437,71.9268041 72.6759298,75.4449046 Z M63.3867706,61.3437394 C61.1320953,61.3437394 59.2981324,59.5102058 59.2981324,57.2551012 C59.2981324,55.0004259 61.131666,53.166463 63.3867706,53.166463 C65.6418752,53.166463 67.4754087,54.9999966 67.4754087,57.2551012 C67.475838,59.5097765 65.6423045,61.3437394 63.3867706,61.3437394 Z" id="Shape"></path>
                    <path d="M125.288169,76.0562256 C123.85517,69.5085661 121.426629,62.9012341 118.147648,56.4291311 C122.915007,40.111498 120.798995,24.9821631 111.295187,15.4800718 C102.829851,7.0168827 89.8590285,4.17320996 74.7455775,7.47880781 C73.2756597,7.79992303 71.8040247,8.19230178 70.329814,8.6216002 C63.8598574,5.34648255 57.2585356,2.92008787 50.7151691,1.48923623 C34.0107382,-2.16795703 19.6640142,0.967638643 10.3156118,10.3164704 C0.966780046,19.6653021 -2.16666913,34.0137433 1.48623114,50.7177448 C2.91922927,57.2654044 5.34562395,63.8727364 8.62503459,70.3448394 C3.76966944,86.889142 6.07586056,101.89398 15.477496,111.295616 C21.6409334,117.459053 30.1942752,120.640155 40.2213984,120.640155 C43.9665979,120.640155 47.9182898,120.194543 52.0249585,119.29688 C53.4948763,118.975765 54.9665113,118.583386 56.4407221,118.154087 C62.9106786,121.429205 69.5120005,123.8556 76.055367,125.286451 C80.6037838,126.279848 84.9766175,126.772683 89.1223524,126.772683 C100.202545,126.772683 109.65312,123.260592 116.456212,116.457071 C125.806761,107.110815 128.94064,92.7619444 125.288169,76.0562256 Z M108.404291,18.3709674 C116.062116,26.0287926 118.230932,37.9611422 115.307839,51.2101501 C110.704043,43.349696 104.843261,35.7717203 97.9212528,28.851859 C91.0013916,21.9298513 83.4234158,16.0690692 75.5629617,11.465273 C88.6934832,8.57266018 100.668333,10.6354391 108.404291,18.3709674 Z M5.48042365,49.8445519 C2.13404245,34.5490784 4.87725937,21.5374725 13.2056488,13.2069366 C19.2201196,7.19246576 27.6730056,4.09164326 37.6696486,4.09164326 C41.5148746,4.09164326 45.5910631,4.55142187 49.843264,5.48171155 C54.810676,6.56912445 59.8235937,8.25798444 64.7807026,10.4838968 C53.3042678,14.854584 41.997406,22.3200835 32.1583155,32.1591741 C28.5994316,35.718058 25.3303241,39.5246471 22.3866248,43.4741926 C21.4563351,43.1552239 20.4732417,42.9448676 19.4347689,42.9448676 C14.3630373,42.9448676 10.235333,47.0721427 10.235333,52.1443035 C10.235333,54.7587309 11.3433522,57.1078519 13.0991827,58.7842622 C12.1341199,60.7998183 11.2531995,62.8072177 10.4907655,64.7987331 C8.26098953,59.8347554 6.56826585,54.8184034 5.48042365,49.8445519 Z M24.5459959,52.1443035 C24.5459959,54.9613597 22.2544009,57.2551012 19.4351982,57.2551012 C16.6159954,57.2551012 14.3244004,54.9613597 14.3244004,52.1443035 C14.3244004,49.3272473 16.6159954,47.0335058 19.4351982,47.0335058 C22.2544009,47.0335058 24.5459959,49.3272473 24.5459959,52.1443035 Z M18.3696795,108.40472 C10.8161737,100.851215 8.52629596,89.0064418 11.4867379,75.6003107 C16.0862412,83.4483151 21.941013,91.012124 28.8527176,97.9216821 C35.7747254,104.845836 43.3527011,110.708765 51.2170189,115.312561 C38.0826337,118.20732 26.1077835,116.144542 18.3696795,108.40472 Z M31.7427546,95.0312158 C24.019676,87.3081372 17.6720695,78.7565127 13.0047371,69.9335715 C13.9616433,66.9572455 15.1881489,63.9233936 16.6374603,60.861208 C17.5248202,61.14755 18.4529634,61.3437394 19.4339103,61.3437394 C24.5056418,61.3437394 28.6333461,57.2164644 28.6333461,52.1443035 C28.6333461,49.5891193 27.5824236,47.2790645 25.8961394,45.6086643 C28.6642556,41.9291476 31.7242948,38.377991 35.0504989,35.0500696 C45.838339,24.2622296 58.151047,16.7559467 69.9095308,12.9922874 C78.7427751,17.6591906 87.3004099,24.01109 95.0316451,31.7423253 C102.761163,39.4718434 109.112633,48.0311953 113.781683,56.8622932 C111.50082,63.9543031 107.827314,71.2867201 102.812679,78.4624433 C101.69221,77.9739016 100.459694,77.6978628 99.161496,77.6978628 C94.0897644,77.6978628 89.9620601,81.8251378 89.9620601,86.8972986 C89.9620601,88.7656054 90.5283047,90.4991124 91.4890746,91.9505704 C80.7587605,102.613485 68.5422153,110.046357 56.8691619,113.7834 C48.0359176,109.114351 39.4744192,102.76288 31.7427546,95.0312158 Z M104.272723,86.8968693 C104.272723,89.7160721 101.981128,92.0076671 99.1619253,92.0076671 C96.3427225,92.0076671 94.0511275,89.7160721 94.0511275,86.8968693 C94.0511275,84.0776666 96.3427225,81.7860716 99.1619253,81.7860716 C101.981128,81.7860716 104.272723,84.0776666 104.272723,86.8968693 Z M113.568322,113.568751 C105.242079,121.89714 92.2364831,124.64465 76.9307065,121.293976 C71.9632944,120.206563 66.9525233,118.517703 61.9932679,116.291791 C73.4104594,111.943427 84.6602246,104.529014 94.4623954,94.7633336 C95.8421606,95.5914503 97.4387214,96.0963052 99.1623546,96.0963052 C104.234086,96.0963052 108.36179,91.9690302 108.36179,86.8968693 C108.36179,84.6009814 107.48688,82.5240356 106.090802,80.9111615 C110.471792,74.6575713 113.877417,68.271328 116.283634,61.9769546 C118.51384,66.9426494 120.206563,71.9590015 121.293976,76.932853 C124.639499,92.2266093 121.896282,105.240362 113.568322,113.568751 Z" id="Shape"></path>
                </g>
                <text id="IDEA-DEVELOPMENT" font-family="AirbnbCerealApp-Medium, Airbnb Cereal App" font-size="18.1531904" font-weight="400" line-spacing="22.691488" letter-spacing="1.58840409" fill="#4D4D4D">
                    <tspan x="50.9998478" y="173.949468">IDEA</tspan>
                    <tspan x="0.692819149" y="196.640956">DEVELOPMENT</tspan>
                </text>
            </g>
            <g id="INVESTIGATION" transform="translate(352.718085, 0.000000)">
                <rect id="Rectangle" stroke="#4D4D4D" stroke-width="3.4037232" transform="translate(179.851148, 222.376578) rotate(45.000000) translate(-179.851148, -222.376578) " x="55.5317001" y="96.784183" width="248.638896" height="251.184791" rx="13.6148928"></rect>
                <text font-family="AirbnbCerealApp-Medium, Airbnb Cereal App" font-size="18.1531904" font-weight="400" line-spacing="54.4595712" letter-spacing="1.58840409" fill="#4D4D4D">
                    <tspan x="101.905909" y="18">INVESTIGATION</tspan>
                </text>
                <g id="02_investigar" transform="translate(114.592010, 158.840412)" fill="#000000" fill-rule="nonzero">
                    <path d="M118.678285,20.8835036 L118.678285,6.6214526 L123.568217,10.2885804 L126.012969,7.02876863 L116.64085,0 L107.26873,7.02919649 L109.713482,10.2890083 L114.603414,6.62188046 L114.603414,20.8835036 C114.603414,26.5007853 110.033516,31.0706829 104.416234,31.0706829 L96.2669188,31.0706829 C89.8204581,31.0706829 84.3666162,35.1455546 82.6060013,41.2578621 L79.6884718,41.2578621 L79.6131697,45.3327339 L82.0048678,45.3327339 L82.0048678,51.6833555 C81.0045476,51.5408805 79.9896803,51.4450414 78.9487141,51.4450414 C74.2098145,51.4450414 69.6540361,53.0280974 65.9133175,55.9417762 C63.2383808,53.0956982 59.4912444,51.4450414 55.5186296,51.4450414 C54.1229732,51.4450414 52.7538437,51.6670971 51.4437579,52.060294 L51.4437579,39.2204263 C51.4437579,32.478747 45.9612499,26.996239 39.2195706,26.996239 L37.1821347,26.996239 L37.1821347,22.9213673 L33.107263,22.9213673 L33.107263,26.996239 L26.9953833,26.996239 C20.253704,26.996239 14.771196,32.478747 14.771196,39.2204263 L14.771196,43.295298 C14.771196,45.5423818 12.943836,47.3701697 10.6963243,47.3701697 L6.6214526,47.3701697 L10.2885804,42.4802381 L7.02876863,40.0354862 L0,49.4067499 L7.02919649,58.7788692 L10.2890083,56.3341173 L6.62188046,51.4441857 L10.6963243,51.4441857 C15.1909198,51.4441857 18.8460677,47.7890378 18.8460677,43.2944423 L18.8460677,39.2195706 C18.8460677,34.7249751 22.5012157,31.0698272 26.9958112,31.0698272 L39.2199984,31.0698272 C43.7145939,31.0698272 47.3697419,34.7249751 47.3697419,39.2195706 L47.3697419,54.0314126 C46.4836584,54.6509437 45.65833,55.3620354 44.92499,56.1766674 C43.3907092,55.738546 41.8179217,55.5186296 40.2391442,55.5186296 C31.4985358,55.5186296 24.243433,61.9813487 23.0984984,70.4913443 C15.8284207,72.6413055 10.6963243,79.3953926 10.6963243,87.0984575 C10.6963243,90.7048302 11.8309904,94.2273437 13.9133508,97.1487238 C13.1290963,99.1515036 12.7337602,101.247983 12.7337602,103.397516 C12.7337602,112.946767 20.5022866,120.715293 30.0515371,120.715293 C30.8238117,120.715293 31.5794001,120.645981 32.3251478,120.548431 C32.4659114,120.530033 32.6062472,120.505645 32.7470108,120.483397 C33.5008878,120.36531 34.242357,120.208288 34.9637171,119.994361 C37.7652983,121.803751 40.9741956,122.753157 44.3131602,122.753157 C48.0478888,122.753157 51.6050584,121.577417 54.5572439,119.399645 C57.7682805,124.036716 63.0103351,126.828029 68.7619626,126.828029 C74.1041348,126.828029 79.024444,124.419644 82.2962357,120.294286 C84.975451,121.909859 88.0050779,122.753585 91.1733292,122.753585 C100.72258,122.753585 108.491106,114.985059 108.491106,105.435808 C108.491106,103.373985 108.126575,101.360936 107.407355,99.4334587 C110.701822,96.1860546 112.565978,91.7706119 112.565978,87.0988853 C112.565978,86.0596305 112.464149,85.0392011 112.284878,84.0427315 L112.565978,84.0427315 L112.565978,79.9678598 L111.009449,79.9678598 C108.968162,75.4813936 105.068282,71.9546015 100.195037,70.5041799 C99.298685,62.1529178 93.6775526,55.3419263 86.0801674,52.6729795 L86.0801674,45.332306 C86.0801674,39.7150243 90.650065,35.1451267 96.2673467,35.1451267 L104.41709,35.1451267 C112.278888,35.1451267 118.678285,28.7457298 118.678285,20.8835036 Z M96.2322627,72.1993334 L96.2891672,73.806777 L97.8662332,74.1225325 C101.53165,74.8580118 104.569406,77.1093741 106.451959,80.1227426 L106.451959,84.0427315 L108.08379,84.0427315 C108.324243,85.0327833 108.491106,86.0476506 108.491106,87.0988853 C108.491106,90.3343095 107.307237,93.394314 105.212897,95.7902906 C102.282959,91.7560649 97.6441775,89.2890647 92.3242537,88.9365138 L92.0572734,92.7486838 C98.8254796,93.1949345 104.147115,98.076309 104.391847,105.896178 C104.147543,112.984418 98.3206131,118.678713 91.1733292,118.678713 C88.2070245,118.678713 85.3930355,117.707059 83.0381328,115.869003 L82.2252121,115.233213 C79.7149987,112.947195 78.174728,109.777232 77.9445431,106.317613 L73.8778006,106.588444 C74.16489,110.90163 76.0311846,114.864404 79.0569609,117.816589 C76.5548767,120.935638 72.8162974,122.753157 68.7619626,122.753157 C63.7030291,122.753157 59.1575191,119.925049 56.9044454,115.371838 L55.6495526,112.839376 L53.6429221,114.834026 C51.1451165,117.311295 47.8322509,118.678713 44.3135881,118.678713 C42.7018659,118.678713 41.1414861,118.356968 39.6602591,117.794341 C44.3054589,114.685134 47.3697419,109.394304 47.3697419,103.397944 C47.3697419,102.964101 47.3128374,102.542238 47.282032,102.114385 C50.5234461,101.552187 53.553073,100.085079 56.0123719,97.8298657 L53.2578545,94.8246265 C51.359043,96.5647045 49.0199708,97.6891021 46.5140359,98.1088259 C45.1508963,93.8546838 42.2008501,90.2179335 38.10972,88.0624102 L36.2109085,91.6687829 C40.5809987,93.973199 43.2948701,98.4656553 43.2948701,103.397944 C43.2948701,109.114916 39.6457121,113.982171 34.5606796,115.834347 C33.843598,116.093198 33.1162479,116.288727 32.3846193,116.423072 C32.3358441,116.431202 32.286641,116.437192 32.2378658,116.445321 C31.5105157,116.569398 30.7810264,116.64085 30.0515371,116.64085 C22.7493704,116.64085 16.8086319,110.699683 16.8086319,103.397944 C16.8086319,101.43795 17.2424748,99.5331484 18.0981807,97.7297481 L18.6565289,96.5561474 L17.8252105,95.5536879 C15.8549476,93.1820989 14.771196,90.1811381 14.771196,87.0984575 C14.771196,80.811158 19.2392646,75.3508984 25.3943575,74.1161147 L26.9568765,73.8042099 L27.0300394,72.215164 C27.2379759,67.7612145 29.6134156,63.9190948 33.1076909,61.6797124 L33.1076909,65.7058088 L37.1825626,65.7058088 L37.1825626,59.9623105 C38.1644852,59.7299864 39.1853423,59.5935013 40.2387164,59.5935013 C41.8136432,59.5935013 43.3842914,59.8848692 44.9001745,60.4573364 L46.3570139,61.0075554 L47.2696243,59.7483841 C47.3000018,59.7055988 47.3367972,59.6688034 47.369314,59.6260181 L47.369314,69.7802527 L51.4441857,69.7802527 L51.4441857,56.3987231 C52.7174762,55.8365243 54.0990134,55.5186296 55.5190574,55.5186296 C58.3386085,55.5186296 60.9895855,56.6943695 62.8965262,58.7069899 C59.4818317,62.5923228 57.0473482,67.6225902 57.0473482,72.8364065 C57.0473482,84.6327408 67.7436726,94.2290551 77.9308518,94.2290551 L77.9308518,90.1541834 C69.7811084,90.1541834 61.12222,82.385657 61.12222,72.8364065 C61.12222,68.5844036 62.9559978,64.4808658 65.7592905,61.3250223 L66.9269012,60.3328312 C70.1785838,57.2279022 74.467382,55.5186296 78.8862475,55.5186296 C79.9314923,55.5186296 81.0131046,55.6225978 82.0052957,55.799729 L82.0052957,63.6679451 C82.0052957,69.2852268 77.4353981,73.8551244 71.8181164,73.8551244 L69.7806806,73.8551244 L69.7806806,77.9299961 L71.8181164,77.9299961 C79.6803426,77.9299961 86.0797396,71.5305992 86.0797396,63.668373 L86.0797396,57.0589003 C91.8886994,59.6773605 95.9836802,65.3943319 96.2322627,72.1993334 Z" id="Shape"></path>
                    <rect id="Rectangle-path" x="94.229483" y="79.9678598" width="6.11230757" height="4.07487171"></rect>
                    <rect id="Rectangle-path" x="104.416662" y="41.2574343" width="6.11230757" height="4.07487171"></rect>
                    <path d="M72.8103075,43.3945599 L74.8640017,39.875897 C73.3930432,39.0159126 72.1462796,37.7935366 71.257629,36.3371251 L67.7796122,38.4579923 C69.0186744,40.4890104 70.7566132,42.1965716 72.8103075,43.3945599 Z" id="Shape"></path>
                    <path d="M65.705381,31.070255 C65.7058088,31.2820422 65.7100874,31.4938295 65.719928,31.7060445 L69.7905212,31.2538039 L69.7802527,24.9583753 L65.705381,24.9583753 L65.705381,31.070255 Z" id="Shape"></path>
                    <rect id="Rectangle-path" x="65.7058088" y="12.7337602" width="4.07487171" height="6.11230757"></rect>
                    <path d="M117.441362,78.7168177 L119.403496,82.2863951 C121.485857,81.1414605 123.268292,79.4788239 124.55998,77.4803227 L121.132878,75.2717456 C120.210427,76.7016302 118.932858,77.8936286 117.441362,78.7168177 Z" id="Shape"></path>
                    <path d="M122.753157,69.7806806 C122.753157,70.0211339 122.745028,70.259448 122.72663,70.4999014 L126.793373,70.7831401 C126.815621,70.4511262 126.828029,70.116973 126.828029,69.7806806 L126.828029,63.6688008 L122.753157,63.6688008 L122.753157,69.7806806 Z" id="Shape"></path>
                    <rect id="Rectangle-path" x="92.1920471" y="41.2574343" width="6.11230757" height="4.07487171"></rect>
                    <path d="M126.334714,51.8108557 L122.402746,52.8723589 C122.63507,53.7340548 122.753157,54.6244169 122.753157,55.5190574 L122.753157,57.5564933 L126.828029,57.5564933 L126.828029,55.5190574 C126.828029,54.2658761 126.662878,53.0169732 126.334714,51.8108557 Z" id="Shape"></path>
                    <path d="M122.863115,45.6703099 C121.212886,43.9447788 119.146784,42.6509514 116.885581,41.927452 L115.644808,45.8067949 C117.258241,46.324497 118.737757,47.2512266 119.919059,48.4860103 L122.863115,45.6703099 Z" id="Shape"></path>
                    <polygon id="Shape" points="65.7058088 6.6214526 69.7806806 6.6214526 74.6706122 10.2890083 77.1153641 7.02919649 67.7432447 0 58.3715532 7.02919649 60.8163051 10.2890083"></polygon>
                    <rect id="Rectangle-path" x="33.1076909" y="10.6963243" width="4.07487171" height="6.11230757"></rect>
                    <rect id="Rectangle-path" x="33.1076909" y="47.369314" width="4.07487171" height="6.11230757"></rect>
                    <rect id="Rectangle-path" x="33.1076909" y="35.1451267" width="4.07487171" height="6.11230757"></rect>
                    <rect id="Rectangle-path" x="33.1076909" y="71.8181164" width="4.07487171" height="6.11230757"></rect>
                    <polygon id="Shape" points="35.1451267 5.09358964 42.0720664 10.2890083 44.5172461 7.02919649 35.1451267 0 25.7730074 7.02919649 28.2177592 10.2890083"></polygon>
                </g>
            </g>
            <g id="PROTOTYPING" transform="translate(351.718085, 449.156915)">
                <rect id="Rectangle" stroke="#4D4D4D" stroke-width="3.4037232" transform="translate(179.338339, 179.775515) rotate(45.000000) translate(-179.338339, -179.775515) " x="55.0188914" y="54.1831191" width="248.638896" height="251.184791" rx="13.6148928"></rect>
                <text id="PROTOTYPING-&amp;-VALIDA" font-family="AirbnbCerealApp-Medium, Airbnb Cereal App" font-size="18.1531904" font-weight="400" line-spacing="22.691488" letter-spacing="1.58840409" fill="#4D4D4D">
                    <tspan x="109.910048" y="386.114865">PROTOTYPING</tspan>
                    <tspan x="110.195961" y="408.806353">&amp; VALIDATION</tspan>
                </text>
                <g id="07_prototipar" transform="translate(117.239307, 115.348391)" fill="#000000" fill-rule="nonzero">
                    <path d="M45.1540373,53.2372973 C31.5740403,53.2372973 20.5286212,64.2844336 20.5286212,77.8627134 C20.5286212,79.904886 20.8068066,82.0002915 21.3502984,84.0918335 L22.2518251,87.5425342 L54.8312823,54.9647941 L51.3805816,54.0632675 C49.2877518,53.5150534 47.1940634,53.2372973 45.1540373,53.2372973 Z M24.6743561,79.3386413 C24.6357192,78.8440896 24.6172594,78.351255 24.6172594,77.8627134 C24.6172594,66.5395382 33.8308621,57.3259355 45.1540373,57.3259355 C45.6404324,57.3259355 46.133267,57.3443953 46.6299653,57.3830321 L24.6743561,79.3386413 Z" id="Shape"></path>
                    <path d="M117.474508,28.6200379 C114.998744,28.6200379 112.668512,29.5851007 110.918692,31.3370676 L106.302875,35.951167 L106.302875,6.13295725 C106.302446,2.75180288 103.551072,0 100.169489,0 L26.5757188,0 C23.1945644,0 20.4427615,2.75180288 20.4427615,6.13295725 L20.4427615,40.0986191 C8.14422036,48.1732931 0,62.0808448 0,77.8622841 C0,89.9234232 4.69781263,101.263341 13.2266844,109.791783 L14.6721322,111.237231 L20.4431908,105.466173 L20.4431908,120.61225 C20.4431908,123.993405 23.1949937,126.745207 26.5761481,126.745207 L100.170347,126.745207 C103.551502,126.745207 106.303305,123.993405 106.303305,120.61225 L106.303305,62.1748611 L124.031183,44.4469828 C125.780145,42.6967331 126.745207,40.370365 126.745207,37.8928838 C126.745207,32.7799396 122.587023,28.6200379 117.474508,28.6200379 Z M62.3500149,90.1239056 L60.1301127,87.9040034 L102.213808,45.8203085 L104.43371,48.0402106 L62.3500149,90.1239056 Z M63.2073238,96.7617178 L57.683541,97.6817043 L58.6035276,92.1579215 L63.2073238,96.7617178 Z M24.5313997,6.13295725 C24.5313997,5.00647819 25.4470933,4.08863817 26.5757188,4.08863817 L100.169918,4.08863817 C101.298544,4.08863817 102.214237,5.00647819 102.214237,6.13295725 L102.214237,16.3545527 L24.5313997,16.3545527 L24.5313997,6.13295725 Z M24.5313997,20.4427615 L102.213808,20.4427615 L102.213808,40.0393759 L55.3301271,86.9230565 L52.7071137,102.657702 L68.4417595,100.034689 L102.213378,66.26307 L102.213808,106.302446 L24.5313997,106.302446 L24.5313997,101.377964 L78.5289845,47.3803789 L77.0835367,45.9349311 C68.554665,37.4060594 57.2151765,32.7082468 45.1540373,32.7082468 C37.7271746,32.7082468 30.7193072,34.5216033 24.5313997,37.7125785 L24.5313997,20.4427615 Z M14.706476,105.419379 C14.1750046,104.834675 13.6989126,104.21305 13.2039316,103.603876 L16.4605894,101.238442 L14.0565182,97.9285509 L10.78784,100.302142 C9.16895569,97.8345345 7.8072211,95.2261173 6.76488453,92.4846176 L10.6427372,91.2254853 L9.38145841,87.3373295 L5.51777262,88.5024454 C4.7613488,85.6896822 4.32818669,83.814936 4.18265452,79.7262978 L8.17727634,79.7262978 L8.17727634,75.6376596 L4.19295769,75.6376596 C4.34020704,73.5933406 4.80213215,69.8421309 5.55640947,67.0559842 L9.38145841,68.3438795 L10.6427372,64.4780472 L6.81983473,63.2472486 C7.87676744,60.4855718 9.20158237,57.864705 10.7998604,55.4258606 L14.0582354,57.7951586 L16.4623066,54.4895608 L13.2039316,52.1224093 C15.0477683,49.8368245 17.129007,47.7577322 19.4145918,45.911749 L21.7817433,49.170124 L25.0916342,46.7660529 L22.7244827,43.5076779 C25.163327,41.9089705 27.7880575,40.5841556 30.5501636,39.5293694 L31.7929825,43.3522718 L35.6811383,42.0888466 L34.3481667,38.2637976 C37.1343135,37.5082324 40.8855231,37.0484538 42.9298422,36.9012044 L42.9298422,40.8855231 L47.0184803,40.8855231 L47.0184803,36.8909013 C51.1071185,37.0360041 52.9814354,37.4713127 55.7924815,38.2277366 L54.5822892,42.0892759 L58.4931979,43.3527011 L59.7647798,39.4748485 C62.5062795,40.5176143 65.1185604,41.8810661 67.5861677,43.497804 L65.2147233,46.7664822 L68.5263313,49.1705533 L70.8934828,45.9121783 C71.5048037,46.4050129 72.1242814,46.8832513 72.710703,47.4147228 L14.706476,105.419379 Z M61.3282846,116.523612 C61.3282846,115.394986 62.2439782,114.479293 63.3726037,114.479293 C64.5012293,114.479293 65.4169228,115.394986 65.4169228,116.523612 C65.4169228,117.652238 64.5012293,118.567931 63.3726037,118.567931 C62.2439782,118.567931 61.3282846,117.652238 61.3282846,116.523612 Z M102.213808,120.61225 C102.213808,121.740876 101.298114,122.656569 100.169489,122.656569 L63.3807604,122.656569 C66.7580511,122.651847 69.505561,119.902191 69.505561,116.524041 C69.505561,113.142887 66.7537581,110.391084 63.3726037,110.391084 C59.9914494,110.391084 57.2396465,113.142887 57.2396465,116.524041 C57.2396465,119.90262 59.9871564,122.651847 63.3644471,122.656569 L26.5757188,122.656569 C25.4470933,122.656569 24.5313997,121.740876 24.5313997,120.61225 L24.5313997,110.390655 L63.3726037,110.390655 L102.213808,110.390655 L102.213808,120.61225 Z M67.4612419,95.2347033 L65.2413398,93.0148012 L107.324605,50.9311062 L109.544508,53.1510083 L67.4612419,95.2347033 Z M112.435403,50.260542 L105.104703,42.9298422 L108.346765,39.6877805 L115.677465,47.0184803 L112.435403,50.260542 Z M121.139858,41.5582337 L118.56836,44.1280141 L111.237661,36.7973142 L113.809158,34.2258167 C114.788388,33.2487335 116.09045,32.7091054 117.474508,32.7091054 C120.330201,32.7091054 122.656569,35.0354735 122.656569,37.8933131 C122.656569,39.2765126 122.116941,40.579004 121.139858,41.5582337 Z" id="Shape"></path>
                    <rect id="Rectangle-path" x="51.1071185" y="8.17727634" width="24.5313997" height="4.08863817"></rect>
                </g>
            </g>
            <g id="testing" transform="translate(546.486702, 661.835106)">
                <circle id="Oval-Copy-3" stroke="#69D0C1" stroke-width="4.5382976" fill="#FFFFFF" cx="65.0488674" cy="63.9143443" r="63.5361664"></circle>
                <g id="06_testear" transform="translate(28.742487, 27.607963)" fill="#000000" fill-rule="nonzero">
                    <path d="M69.0163518,18.8545414 L58.3241838,18.8545414 C58.4544955,18.4877979 58.5383547,18.0975043 58.5383547,17.686359 C58.5383547,15.7542708 56.9711904,14.181812 55.0456076,14.181812 L53.8813585,14.181812 L53.8813585,3.66841634 C53.8813585,1.73632813 52.3141942,0.16386934 50.3886113,0.16386934 L22.4473673,0.16386934 C20.5217845,0.16386934 18.9546201,1.73632813 18.9546201,3.66841634 L18.9546201,13.0136297 C18.9546201,13.6585586 18.4319061,14.181812 17.7903711,14.181812 L7.31261852,14.181812 L7.31261852,11.8454474 C7.31261852,9.91335916 5.7454542,8.34090037 3.81987134,8.34090037 L0.327124158,8.34090037 L0.327124158,22.3588431 L3.81987134,22.3588431 C5.7454542,22.3588431 7.31261852,20.7863843 7.31261852,18.8542961 L7.31261852,16.5179314 L17.7906156,16.5179314 C19.7161984,16.5179314 21.2833628,14.9454726 21.2833628,13.0133844 L21.2833628,3.66841634 C21.2833628,3.02348746 21.8060768,2.50023401 22.4476118,2.50023401 L50.3888558,2.50023401 C51.0303908,2.50023401 51.5531049,3.02348746 51.5531049,3.66841634 L51.5531049,14.181812 L50.3888558,14.181812 C48.4632729,14.181812 46.8961086,15.7542708 46.8961086,17.686359 C46.8961086,18.0975043 46.9799678,18.4877979 47.1102796,18.8545414 L36.4181116,18.8545414 C34.4925287,18.8545414 32.9253644,20.4270002 32.9253644,22.3590884 L10.3965827,22.3590884 L3.12014836,28.2 L10.3965827,34.0409117 L32.9256089,34.0409117 L32.9256089,36.3772764 L15.5354637,36.3772764 L5.6464368,35.1367266 L0,42.2176974 L5.6464368,49.2991589 L15.5354637,48.0586091 L32.9256089,48.0586091 L32.9256089,51.5631561 L0.327124158,51.5631561 L0.327124158,69.0856458 L41.5151851,69.0856458 C44.7040345,71.2910131 48.5610679,72.5901928 52.7173539,72.5901928 C63.6307831,72.5901928 72.509099,63.6818826 72.509099,52.7315837 L72.509099,22.3588431 C72.509099,20.4267548 70.9421791,18.8545414 69.0163518,18.8545414 Z M4.9841204,18.8545414 C4.9841204,19.4994703 4.46140631,20.0227237 3.81987134,20.0227237 L2.65562228,20.0227237 L2.65562228,10.677265 L3.81987134,10.677265 C4.46140631,10.677265 4.9841204,11.2005185 4.9841204,11.8454474 L4.9841204,18.8545414 Z M9.64087215,30.4414284 L6.84784795,28.1997547 L9.64087215,25.9568545 L9.64087215,30.4414284 Z M32.9253644,31.7040564 L11.9693703,31.7040564 L11.9693703,29.3676918 L32.9253644,29.3676918 L32.9253644,31.7040564 Z M32.9253644,27.0315724 L11.9693703,27.0315724 L11.9693703,24.6952077 L32.9253644,24.6952077 L32.9253644,27.0315724 Z M14.2978684,45.8672246 L6.65005763,46.8190406 L3.91424348,43.3858798 L5.19951381,43.3858798 C5.68042055,44.7422175 6.96104562,45.7222444 8.47686758,45.7222444 C10.4024504,45.7222444 11.9696148,44.1497856 11.9696148,42.2176974 C11.9696148,40.2856092 10.4024504,38.7131504 8.47686758,38.7131504 C6.96104562,38.7131504 5.68042055,39.6931774 5.19829137,41.0495151 L3.91424348,41.0495151 L6.65005763,37.6175809 L14.2978684,38.5767562 L14.2978684,45.8672246 Z M7.31261852,42.2176974 C7.31261852,41.5727685 7.83533261,41.0495151 8.47686758,41.0495151 C9.11840255,41.0495151 9.64111664,41.5727685 9.64111664,42.2176974 C9.64111664,42.8626263 9.11840255,43.3858798 8.47686758,43.3858798 C7.83533261,43.3858798 7.31261852,42.862381 7.31261852,42.2176974 Z M32.9253644,45.7217538 L21.2831183,45.7217538 L21.2831183,38.7131504 L18.9546201,38.7131504 L18.9546201,45.7219991 L16.626122,45.7219991 L16.626122,38.7048098 L32.9253644,38.7129051 L32.9253644,45.7217538 Z M50.3888558,16.5181767 L55.045852,16.5181767 C55.687387,16.5181767 56.2101011,17.0414302 56.2101011,17.686359 C56.2101011,18.3312879 55.687387,18.8545414 55.045852,18.8545414 L50.3888558,18.8545414 C49.7473208,18.8545414 49.2246067,18.3310426 49.2246067,17.686359 C49.2246067,17.0414302 49.7473208,16.5181767 50.3888558,16.5181767 Z M2.65562228,66.7490358 L2.65562228,53.8992755 L4.9841204,53.8992755 L4.9841204,57.4038225 L7.31261852,57.4038225 L7.31261852,53.8992755 L9.64111664,53.8992755 L9.64111664,58.5720048 L11.9696148,58.5720048 L11.9696148,53.8992755 L14.2981129,53.8992755 L14.2981129,57.4038225 L16.626611,57.4038225 L16.626611,53.8992755 L18.9551091,53.8992755 L18.9551091,58.5720048 L21.2836072,58.5720048 L21.2836072,53.8992755 L23.6121054,53.8992755 L23.6121054,57.4038225 L25.9406035,57.4038225 L25.9406035,53.8992755 L28.2691016,53.8992755 L28.2691016,58.5720048 L30.5975997,58.5720048 L30.5975997,53.8992755 L32.9855083,53.8992755 C33.2776707,58.8990075 35.3978656,63.4140004 38.7136039,66.7490358 L2.65562228,66.7490358 Z M70.1806008,52.7308478 C70.1806008,62.3927607 62.3467352,70.2533375 52.7173539,70.2533375 C43.0879727,70.2533375 35.2538625,62.3927607 35.2538625,52.7308478 L35.2538625,48.0581185 L35.2538625,36.3765404 L35.2538625,35.2083581 L70.1806008,35.2083581 L70.1806008,52.7308478 Z M70.1808453,32.8722388 L53.881603,32.8722388 L53.881603,23.5270254 L51.5531049,23.5270254 L51.5531049,32.8722388 L35.2538625,32.8722388 L35.2538625,22.3588431 C35.2538625,21.7141595 35.7765766,21.1906607 36.4181116,21.1906607 L50.3888558,21.1906607 L55.045852,21.1906607 L69.0165963,21.1906607 C69.6581312,21.1906607 70.1808453,21.7139142 70.1808453,22.3588431 L70.1808453,32.8722388 Z" id="Shape"></path>
                </g>
            </g>
            <g id="ideas" transform="translate(359.281915, 455.720745)">
                <circle id="Oval-Copy-2" stroke="#69D0C1" stroke-width="4.5382976" fill="#FFFFFF" cx="63.9143143" cy="63.9143443" r="63.5361664"></circle>
                <g id="04_oportunidades" transform="translate(25.338785, 29.877112)" fill="#000000" fill-rule="nonzero" stroke="#FFFFFF">
                    <g id="Group" transform="translate(20.422339, 18.153190)" stroke-width="0.945478723">
                        <path d="M32.867365,18.9774105 C32.867365,11.2628668 26.6138448,4.98755733 18.9260877,4.98755733 C11.2383306,4.98755733 4.98481037,11.2628668 4.98481037,18.9774105 C4.98481037,23.6391716 7.33768759,28.0117148 11.1810782,30.5967219 L11.1810782,33.0465865 C9.41503778,33.4072927 8.08294429,34.9770994 8.08294429,36.8534248 C8.08294429,38.2368393 8.81096022,39.4430019 9.89680346,40.1334034 C9.73252819,40.5639659 9.63201125,41.0271715 9.63201125,41.516818 C9.63201125,43.6604903 11.3684496,45.402979 13.5046786,45.402979 L24.3478221,45.402979 C26.4840511,45.402979 28.2204895,43.6604903 28.2204895,41.516818 C28.2204895,41.0271715 28.1196472,40.5639659 27.9556972,40.1334034 C29.0415405,39.4433283 29.7695564,38.2368393 29.7695564,36.8534248 C29.7695564,34.9757937 28.4374629,33.4072927 26.6714225,33.0465865 L26.6714225,30.5967219 C30.5144878,28.0117148 32.867365,23.6391716 32.867365,18.9774105 Z M24.3478221,42.2937237 L13.5043533,42.2937237 C13.0782135,42.2937237 12.7298199,41.9441161 12.7298199,41.5164915 C12.7298199,41.0888669 13.0782135,40.7392593 13.5043533,40.7392593 L24.3474968,40.7392593 C24.7736366,40.7392593 25.1220302,41.0888669 25.1220302,41.5164915 C25.1220302,41.9441161 24.7736366,42.2937237 24.3478221,42.2937237 Z M25.896889,37.630657 L24.3478221,37.630657 L13.5043533,37.630657 L11.9552864,37.630657 C11.5291466,37.630657 11.1807529,37.2810494 11.1807529,36.8534248 C11.1807529,36.4258002 11.5294719,36.0761926 11.9556117,36.0761926 L25.896889,36.0761926 C26.3230288,36.0761926 26.6714225,36.4258002 26.6714225,36.8534248 C26.6714225,37.2810494 26.3230288,37.630657 25.896889,37.630657 Z M17.3770207,18.9774105 C17.3770207,18.1192234 18.0708804,17.4229461 18.9260877,17.4229461 C19.781295,17.4229461 20.4751547,18.1192234 20.4751547,18.9774105 C20.4751547,19.8355976 19.781295,20.5318749 18.9260877,20.5318749 C18.0712057,20.5318749 17.3770207,19.8352712 17.3770207,18.9774105 Z M24.3461956,28.3910276 L23.5732886,28.8401967 L23.5732886,32.9672637 L20.4751547,32.9672637 L20.4751547,23.3545238 C22.2737248,22.7111283 23.5732886,21.0009563 23.5732886,18.9770841 C23.5732886,16.4061136 21.4881312,14.3136909 18.9260877,14.3136909 C16.3640442,14.3136909 14.2788868,16.4061136 14.2788868,18.9770841 C14.2788868,21.0009563 15.5784506,22.7108018 17.3770207,23.3545238 L17.3770207,32.9672637 L14.2788868,32.9672637 L14.2788868,28.8401967 L13.5059798,28.3910276 C10.1615957,26.4464782 8.08294429,22.8384364 8.08294429,18.9774105 C8.08294429,12.9789145 12.9484198,8.09648614 18.9260877,8.09648614 C24.9037556,8.09648614 29.7692311,12.9789145 29.7692311,18.9774105 C29.7692311,22.8387628 27.6905797,26.4464782 24.3461956,28.3910276 Z" id="Shape"></path>
                        <rect id="Rectangle-path" x="17.3770207" y="0.324164114" width="3.09813392" height="3.10892881"></rect>
                        <rect id="Rectangle-path" transform="translate(10.406569, 4.169862) rotate(60.007099) translate(-10.406569, -4.169862) " x="8.85747966" y="2.61537513" width="3.09817918" height="3.10897423"></rect>
                        <rect id="Rectangle-path" transform="translate(4.168764, 10.428176) rotate(29.992901) translate(-4.168764, -10.428176) " x="2.61967419" y="8.87368851" width="3.09817918" height="3.10897423"></rect>
                        <rect id="Rectangle-path" x="0.337609495" y="17.4229461" width="3.09813392" height="3.10892881"></rect>
                        <rect id="Rectangle-path" transform="translate(4.168365, 27.527828) rotate(-119.992901) translate(-4.168365, -27.527828) " x="2.61927496" y="25.973341" width="3.09817918" height="3.10897423"></rect>
                        <rect id="Rectangle-path" transform="translate(33.680562, 27.524900) rotate(-150.007099) translate(-33.680562, -27.524900) " x="32.1314724" y="25.9704128" width="3.09817918" height="3.10897423"></rect>
                        <rect id="Rectangle-path" x="34.416432" y="17.4229461" width="3.09813392" height="3.10892881"></rect>
                        <rect id="Rectangle-path" transform="translate(33.683468, 10.430896) rotate(60.007099) translate(-33.683468, -10.430896) " x="32.134378" y="8.87640899" width="3.09817918" height="3.10897423"></rect>
                        <rect id="Rectangle-path" transform="translate(27.444228, 4.168419) rotate(29.992901) translate(-27.444228, -4.168419) " x="25.8951383" y="2.61393191" width="3.09817918" height="3.10897423"></rect>
                    </g>
                    <polygon id="Shape-Copy-2" stroke-width="1.1345744" points="52.1996674 12.5681011 55.2978013 12.5681011 55.2978013 9.45949876 58.3959352 9.45949876 58.3959352 6.35056995 55.2978013 6.35056995 55.2978013 3.24164114 52.1996674 3.24164114 52.1996674 6.35056995 49.1018588 6.35056995 49.1018588 9.45949876 52.1996674 9.45949876"></polygon>
                    <polygon id="Shape" stroke-width="1.1345744" points="6.19626783 20.33248 3.09813392 20.33248 3.09813392 23.4414088 0 23.4414088 0 26.5503376 3.09813392 26.5503376 3.09813392 29.6592664 6.19626783 29.6592664 6.19626783 26.5503376 9.29407645 26.5503376 9.29407645 23.4414088 6.19626783 23.4414088"></polygon>
                    <polygon id="Shape" stroke-width="1.1345744" points="22.2159435 3.43309292 19.1178096 3.43309292 19.1178096 0.324164114 16.0196757 0.324164114 16.0196757 3.43309292 12.9215418 3.43309292 12.9215418 6.54202173 16.0196757 6.54202173 16.0196757 9.65095054 19.1178096 9.65095054 19.1178096 6.54202173 22.2159435 6.54202173"></polygon>
                    <polygon id="Shape" stroke-width="1.1345744" points="72.5085016 28.4289661 69.4103676 28.4289661 69.4103676 31.537895 66.312559 31.537895 66.312559 34.6468238 69.4103676 34.6468238 69.4103676 37.7554261 72.5085016 37.7554261 72.5085016 34.6468238 75.6066355 34.6468238 75.6066355 31.537895 72.5085016 31.537895"></polygon>
                </g>
            </g>
            <g id="conclusions" transform="translate(359.281915, 245.824468)">
                <circle id="Oval-Copy" stroke="#69D0C1" stroke-width="4.5382976" fill="#FFFFFF" cx="64.6707186" cy="63.9143443" r="63.5361664"></circle>
                <g id="03_definir" transform="translate(26.095189, 27.607963)" fill="#000000" fill-rule="nonzero">
                    <path d="M58.2548146,24.2261915 C58.4486122,23.0847869 58.5771564,21.942168 58.5771564,20.8158202 C58.5774017,9.33814686 49.1443661,0 37.550365,0 L21.1963029,0 C9.60230179,0 0.169266235,9.33814686 0.169266235,20.8158202 C0.169266235,26.7426244 2.71709104,32.3605208 7.17811493,36.3156092 L7.17811493,49.3914919 L14.2642373,45.4456318 C15.046787,56.2224342 24.1317229,64.7603836 35.2140003,64.7603836 L51.5683077,64.7603836 C51.5940656,64.7603836 51.6208047,64.7603836 51.6490158,64.7591693 L65.5862504,72.5199921 L65.5862504,59.4441095 C70.0475196,55.489021 72.5950991,49.8711247 72.5950991,43.9443205 C72.5953444,34.7822414 66.5768258,27.0005333 58.2548146,24.2261915 Z M14.2478013,42.7596882 C14.2443669,42.7759593 14.239706,42.7919875 14.2360263,42.8082586 L9.51423428,45.4368892 L9.51423428,35.25556 L9.10235311,34.9094958 C4.91092863,31.3801271 2.50587622,26.2430777 2.50587622,20.8160631 C2.50587622,10.6138487 10.890933,2.31316573 21.1963029,2.31316573 L37.5506103,2.31316573 C47.8562256,2.31316573 56.241037,10.6140915 56.241037,20.8160631 C56.241037,21.7364723 56.167443,22.6721813 56.020255,23.6088616 C54.5834545,23.3001967 53.0963647,23.128986 51.5683077,23.128986 L37.550365,23.128986 L35.2140003,23.128986 L10.6826619,23.128986 L10.6826619,25.4419089 L25.6256814,25.4419089 C19.1810535,28.7284256 14.6812701,35.207961 14.2478013,42.7596882 Z M63.6622575,58.038239 L63.2498857,58.3840603 L63.2498857,68.5653894 L52.2213319,62.4236612 L51.9036511,62.4294897 C51.8276039,62.4319182 51.7518021,62.4365324 51.5683077,62.4479464 L35.2140003,62.4479464 C24.9083851,62.4479464 16.5235736,54.1470206 16.5235736,43.9450491 C16.5235736,33.7430775 24.9086304,25.4421517 35.2140003,25.4421517 L37.550365,25.4421517 L51.5683077,25.4421517 C61.8739229,25.4421517 70.2587344,33.7430775 70.2587344,43.9450491 C70.2589797,49.3718209 67.853682,54.5086273 63.6622575,58.038239 Z" id="Shape"></path>
                    <path d="M47.5942309,46.1904591 C50.6559872,44.51478 52.73649,41.2872763 52.73649,37.5842683 C52.73649,32.1640535 48.2823349,27.7545889 42.8071855,27.7545889 C37.3320361,27.7545889 32.877881,32.1640535 32.877881,37.5842683 C32.877881,41.2872763 34.9583838,44.51478 38.0201401,46.1904591 C34.2948111,47.9644933 31.7096986,51.7274857 31.7096986,56.0871656 L31.7096986,60.1347807 L53.9046723,60.1347807 L53.9046723,56.0871656 C53.9046723,51.7274857 51.3195599,47.9644933 47.5942309,46.1904591 Z M35.2142456,37.5842683 C35.2142456,33.4395124 38.6206673,30.0675118 42.8071855,30.0675118 C46.9937037,30.0675118 50.4001253,33.4397553 50.4001253,37.5842683 C50.4001253,41.7287813 46.9937037,45.1010248 42.8071855,45.1010248 C38.6206673,45.1010248 35.2142456,41.7290241 35.2142456,37.5842683 Z M51.5680624,57.8218578 L34.045818,57.8218578 L34.045818,56.0871656 C34.045818,51.3041946 37.9754931,47.4139477 42.8069402,47.4139477 C47.6383873,47.4139477 51.5680624,51.3041946 51.5680624,56.0871656 L51.5680624,57.8218578 Z" id="Shape"></path>
                    <ellipse id="Oval" cx="39.8867297" cy="34.6931147" rx="1.16818233" ry="1.15646144"></ellipse>
                    <ellipse id="Oval" cx="45.7276413" cy="34.6931147" rx="1.16818233" ry="1.15646144"></ellipse>
                    <path d="M48.3851212,40.0161887 L46.5219661,38.6214894 C45.6214206,39.7998075 44.2675361,40.475179 42.8071855,40.475179 C41.3468349,40.475179 39.9931957,39.7998075 39.0924049,38.6214894 L37.2280232,40.0161887 C38.5747937,41.7773517 40.6074604,42.7881019 42.8071855,42.7881019 C45.0069106,42.7881019 47.039332,41.7773517 48.3851212,40.0161887 Z" id="Shape"></path>
                    <rect id="Rectangle-path" x="10.6829072" y="9.25144868" width="37.3810987" height="2.31292288"></rect>
                    <rect id="Rectangle-path" x="10.6829072" y="16.1902173" width="37.3810987" height="2.31292288"></rect>
                </g>
            </g>
            <g id="understanding" transform="translate(546.486702, 64.292553)">
                <circle id="Oval" stroke="#69D0C1" stroke-width="4.5382976" fill="#FFFFFF" cx="63.9143569" cy="63.9143443" r="63.5361664"></circle>
                <g id="01_empatizar" transform="translate(32.146274, 27.607963)" fill="#000000" fill-rule="nonzero">
                    <path d="M63.4051992,0.0220782045 L56.666714,5.10497152 L49.8900098,21.0270367 L44.4405055,21.0270367 L42.3007243,16.3543074 L43.6987634,16.3543074 C46.2560332,16.3543074 48.3356863,14.2809186 48.3356863,11.7039015 L48.3356863,7.00884869 L50.6541478,7.00884869 L50.6541478,0 L43.6987634,0 L43.6987634,7.00884869 L46.0172248,7.00884869 L46.0172248,11.7039015 C46.0172248,12.9913062 44.97752,14.0179427 43.6987634,14.0179427 L41.2308336,14.0179427 L38.26776,7.55810536 L41.8172652,5.775413 L30.1950154,0.759244923 L27.4627168,10.3954 C27.3884695,4.66218086 22.7435132,0.021096951 17.0366996,0.021096951 C11.2836337,0.021096951 6.60386637,4.73700144 6.60386637,10.5344926 C6.60386637,14.0378131 8.36462151,17.3237859 11.2407894,19.2664225 L11.2407894,21.0267914 L8.43326978,21.0267914 L8.25239863,21.9847402 C7.68909331,24.9297273 7.63675508,27.9564039 8.097088,30.974985 L0.188904464,45.1798565 L8.92232786,47.1901997 L8.92232786,61.9124371 L20.5143919,61.9124371 L20.5143919,72.4258328 L48.3354429,72.4258328 L48.3354429,56.1475726 C56.4498147,50.3628377 61.0843033,41.0620261 61.0774872,31.1395903 L61.0799215,26.8782515 C61.0799215,25.2719395 60.9326442,23.621471 60.6358987,21.9952886 L60.464278,21.0267914 L58.1886608,21.0267914 L63.4051992,8.43289288 L63.4051992,0.0220782045 Z M46.0169814,4.69480754 L46.0169814,2.35844287 L48.3354429,2.35844287 L48.3354429,4.69480754 L46.0169814,4.69480754 Z M41.8868872,21.0267914 L37.4899897,21.0267914 L35.3825851,16.354062 L39.7471059,16.354062 L41.8868872,21.0267914 Z M31.6996784,3.95420643 L36.3076328,5.94369798 L35.2202149,6.48093429 L38.6769719,14.0179427 L34.3287611,14.0179427 L31.5037143,7.76956549 L30.4662004,8.2974799 L31.6996784,3.95420643 Z M34.9431875,21.0270367 L29.7882378,21.0270367 L29.7882378,18.7129955 C29.7882378,17.4246097 30.8279427,16.3545527 32.1066993,16.3545527 L32.8357829,16.3545527 L32.8357829,16.3543074 L34.9431875,21.0270367 Z M30.3909794,10.9537332 L31.7970518,14.0716663 C29.3858421,14.2352904 27.4697764,16.2421991 27.4697764,18.7127502 L27.4697764,21.0267914 L22.8328534,21.0267914 L22.8328534,19.2664225 C25.152532,17.6998513 26.7265736,15.2550581 27.2575023,12.5320795 L30.3909794,10.9537332 Z M8.9225713,10.5357192 C8.9225713,6.02784047 12.5636075,2.35868819 17.0369431,2.35868819 C21.5102787,2.35868819 25.1513149,6.02784047 25.1513149,10.5357192 C25.1513149,13.4375312 23.5957742,16.1487347 21.0930335,17.6100666 L20.5146353,17.9463912 L20.5146353,21.0267914 L18.1961738,21.0267914 L18.1961738,13.8238998 C19.5421181,13.3403871 20.5146353,12.0551903 20.5146353,10.5342473 C20.5146353,8.60215912 18.954226,7.02970033 17.0369431,7.02970033 C15.1196601,7.02970033 13.5592508,8.60240443 13.5592508,10.5344926 C13.5592508,12.0554356 14.531768,13.3403871 15.8777123,13.8241451 L15.8777123,21.0270367 L13.5592508,21.0270367 L13.5592508,17.9463912 L12.9808526,17.60884 C10.4781119,16.1475082 8.9225713,13.4372859 8.9225713,10.5357192 Z M17.0369431,11.7039015 C16.3969562,11.7039015 15.8777123,11.1791762 15.8777123,10.5357192 C15.8777123,9.89079032 16.3969562,9.36753688 17.0369431,9.36753688 C17.67693,9.36753688 18.1961738,9.89079032 18.1961738,10.5357192 C18.1961738,11.1806481 17.67693,11.7039015 17.0369431,11.7039015 Z M58.5131578,23.3634014 C58.6813704,24.5313384 58.7660853,25.7159567 58.7660853,26.8677031 L58.7685196,31.1373825 C58.7755792,40.4955975 54.1931853,49.2589275 46.5272182,54.577567 L46.0172248,54.9281198 L46.0172248,70.0897135 L22.8330968,70.0897135 L22.8330968,59.5763178 L11.2407894,59.5763178 L11.2407894,45.3270446 L3.72794196,43.5993024 L10.5138967,31.4072272 L10.4479262,30.9901945 C10.0168053,28.4342743 9.99246191,25.6995207 10.3668628,23.3634014 L11.2407894,23.3634014 L22.8328534,23.3634014 L58.5131578,23.3634014 Z M55.6766696,21.0267914 L52.4112515,21.0267914 L58.189878,7.45041278 L60.7598064,8.74002524 L55.6766696,21.0267914 Z M61.0867377,6.30798835 L59.804573,5.66207821 L61.0867377,4.69480754 L61.0867377,6.30798835 Z" id="Shape"></path>
                    <path d="M19.3554046,30.3722501 C17.4381216,30.3722501 15.8777123,29.2040677 15.8777123,26.8677031 L13.5592508,26.8677031 C13.5592508,30.3722501 16.159365,32.7086147 19.3554046,32.7086147 C22.5514441,32.7086147 25.1515583,30.3722501 25.1515583,26.8677031 L22.8330968,26.8677031 C22.8328534,29.2040677 21.2726875,30.3722501 19.3554046,30.3722501 Z" id="Shape"></path>
                </g>
            </g>
        </g>
    </g>
</svg>